<?xml version="1.0" encoding="UTF-8"?>
<svg xmlns="http://www.w3.org/2000/svg" width="2560" height="1440" viewBox="0 0 2560 1440">
  <title>GAYADI 데이터 모델 ERD</title><desc>여행 서비스의 핵심 데이터 관계</desc>
  <defs>
    <filter id="shadow" x="-20%" y="-20%" width="140%" height="150%">
      <feDropShadow dx="0" dy="8" stdDeviation="9" flood-color="#071A33" flood-opacity="0.18"/>
    </filter>
    <filter id="softShadow" x="-20%" y="-20%" width="140%" height="150%">
      <feDropShadow dx="0" dy="4" stdDeviation="5" flood-color="#071A33" flood-opacity="0.12"/>
    </filter>
    <marker id="arrow" markerWidth="10" markerHeight="10" refX="8" refY="5" orient="auto" markerUnits="strokeWidth">
      <path d="M0,0 L10,5 L0,10 Z" fill="#52627A"/>
    </marker>
    <linearGradient id="pageBackground" x1="0" y1="0" x2="1" y2="1">
      <stop offset="0" stop-color="#DEE7F2"/><stop offset="0.52" stop-color="#F4F7FB"/><stop offset="1" stop-color="#E8EEF6"/>
    </linearGradient>
    <linearGradient id="topHeader" x1="0" y1="0" x2="1" y2="0">
      <stop offset="0" stop-color="#071A33"/><stop offset="0.56" stop-color="#123C69"/><stop offset="1" stop-color="#165A77"/>
    </linearGradient>
    <linearGradient id="bottomBand" x1="0" y1="0" x2="1" y2="0">
      <stop offset="0" stop-color="#071A33"/><stop offset="0.7" stop-color="#102E50"/><stop offset="1" stop-color="#12485C"/>
    </linearGradient>
    <pattern id="grid" width="28" height="28" patternUnits="userSpaceOnUse">
      <circle cx="1" cy="1" r="1.15" fill="#AAB7C8"/>
    </pattern>
  </defs>
  <rect width="2560" height="1440" fill="url(#pageBackground)"/>
  <rect width="2560" height="1440" fill="url(#grid)" opacity="0.24"/>
  <g font-family="Malgun Gothic, Noto Sans KR, Arial, sans-serif"><rect width="2560" height="122" fill="url(#topHeader)"/>
  <rect x="0" y="118" width="2560" height="4" fill="#0D9FA5"/>
  <rect x="64" y="29" width="8" height="62" rx="4" fill="#0D9FA5"/>
  <text x="92" y="55" font-size="35" font-weight="700" fill="#FFFFFF">GAYADI 데이터 모델 · ERD</text>
  <text x="92" y="88" font-size="17" fill="#D5E0EC">핵심 테이블 11개  |  여행 · 설문 · 일정 · 장소 · 이벤트 · 경로</text>
  <g filter="url(#softShadow)"><rect x="2342" y="33" width="154" height="52" rx="26" fill="#FFFFFF" fill-opacity="0.12" stroke="#FFFFFF" stroke-opacity="0.38"/>
  <circle cx="2371" cy="59" r="8" fill="#0D9FA5"/>
  <text x="2429" y="65" text-anchor="middle" font-size="15" font-weight="700" fill="#FFFFFF">GAYADI</text></g><g><rect x="200" y="127" width="170" height="25" rx="12.5" fill="#123C69"/><text x="285" y="144" text-anchor="middle" font-size="11.5" font-weight="700" fill="#FFFFFF">핵심 여행 데이터</text></g>
    <g><rect x="1130" y="127" width="174" height="25" rx="12.5" fill="#6637D9"/><text x="1217" y="144" text-anchor="middle" font-size="11.5" font-weight="700" fill="#FFFFFF">설문 · 성향 데이터</text></g>
    <g><rect x="1890" y="127" width="232" height="25" rx="12.5" fill="#087E62"/><text x="2006" y="144" text-anchor="middle" font-size="11.5" font-weight="700" fill="#FFFFFF">장소 · 실시간 이벤트 데이터</text></g>
    <g transform="translate(2158,35)" filter="url(#softShadow)"><rect width="166" height="52" rx="12" fill="#FFFFFF" fill-opacity="0.94" stroke="#8392A7" stroke-width="1.4"/>
      <line x1="14" y1="18" x2="50" y2="18" stroke="#607089" stroke-width="2.5"/><text x="60" y="22" font-size="11" font-weight="700" fill="#0B1830">물리 FK</text>
      <line x1="14" y1="38" x2="50" y2="38" stroke="#087E62" stroke-width="2.5" stroke-dasharray="8 7"/><text x="60" y="42" font-size="11" font-weight="700" fill="#0B1830">논리 참조</text></g><g transform="translate(145 0)"><polyline points="390,265 475,265" fill="none" stroke="#FFFFFF" stroke-opacity="0.92" stroke-width="5.4" stroke-linejoin="round"/>
    <polyline points="390,265 475,265" fill="none" stroke="#607089" stroke-width="2.7" stroke-linejoin="round"/><text x="403" y="255" font-size="12" font-weight="700" fill="#607089">1</text><text x="458" y="255" font-size="12" font-weight="700" fill="#607089">N</text><rect x="398" y="224" width="68" height="26" rx="13" fill="#FFFFFF" stroke="#607089" stroke-width="1.3"/>
      <text x="432" y="241" text-anchor="middle" font-size="11.5" font-weight="700" fill="#607089">소유</text><polyline points="225,413 225,505" fill="none" stroke="#FFFFFF" stroke-opacity="0.92" stroke-width="5.4" stroke-linejoin="round"/>
    <polyline points="225,413 225,505" fill="none" stroke="#607089" stroke-width="2.7" stroke-linejoin="round"/><text x="237" y="430" font-size="12" font-weight="700" fill="#607089">1</text><text x="237" y="494" font-size="12" font-weight="700" fill="#607089">N</text><rect x="244" y="445" width="68" height="26" rx="13" fill="#FFFFFF" stroke="#607089" stroke-width="1.3"/>
      <text x="278" y="462" text-anchor="middle" font-size="11.5" font-weight="700" fill="#607089">참여</text><polyline points="475,330 445,330 445,575 470,575" fill="none" stroke="#FFFFFF" stroke-opacity="0.92" stroke-width="5.4" stroke-linejoin="round"/>
    <polyline points="475,330 445,330 445,575 470,575" fill="none" stroke="#607089" stroke-width="2.7" stroke-linejoin="round"/><text x="460" y="319" font-size="12" font-weight="700" fill="#607089">1</text><text x="454" y="565" font-size="12" font-weight="700" fill="#607089">N</text><polyline points="1160,403 1160,455" fill="none" stroke="#FFFFFF" stroke-opacity="0.92" stroke-width="5.4" stroke-linejoin="round"/>
    <polyline points="1160,403 1160,455" fill="none" stroke="#607089" stroke-width="2.7" stroke-linejoin="round"/><text x="1172" y="418" font-size="12" font-weight="700" fill="#607089">1</text><text x="1172" y="448" font-size="12" font-weight="700" fill="#607089">N</text><rect x="1176" y="416" width="68" height="26" rx="13" fill="#FFFFFF" stroke="#607089" stroke-width="1.3"/>
      <text x="1210" y="433" text-anchor="middle" font-size="11.5" font-weight="700" fill="#607089">응답</text><polyline points="390,330 430,330 430,435 960,435 960,570 985,570" fill="none" stroke="#FFFFFF" stroke-opacity="0.92" stroke-width="5.4" stroke-linejoin="round"/>
    <polyline points="390,330 430,330 430,435 960,435 960,570 985,570" fill="none" stroke="#6637D9" stroke-width="2.7" stroke-linejoin="round" stroke-dasharray="8 7"/><text x="402" y="320" font-size="12" font-weight="700" fill="#6637D9">1</text><text x="970" y="559" font-size="12" font-weight="700" fill="#6637D9">N</text><rect x="665" y="403" width="90" height="26" rx="13" fill="#FFFFFF" stroke="#6637D9" stroke-width="1.3"/>
      <text x="710" y="420" text-anchor="middle" font-size="11.5" font-weight="700" fill="#6637D9">사용자 응답</text><polyline points="675,426 675,620" fill="none" stroke="#FFFFFF" stroke-opacity="0.92" stroke-width="5.4" stroke-linejoin="round"/>
    <polyline points="675,426 675,620" fill="none" stroke="#607089" stroke-width="2.7" stroke-linejoin="round"/><text x="687" y="444" font-size="12" font-weight="700" fill="#607089">1</text><text x="687" y="608" font-size="12" font-weight="700" fill="#607089">N</text><rect x="699" y="511" width="78" height="26" rx="13" fill="#FFFFFF" stroke="#607089" stroke-width="1.3"/>
      <text x="738" y="528" text-anchor="middle" font-size="11.5" font-weight="700" fill="#607089">현재 일정</text><polyline points="985,635 950,635" fill="none" stroke="#FFFFFF" stroke-opacity="0.92" stroke-width="5.4" stroke-linejoin="round"/>
    <polyline points="985,635 950,635" fill="none" stroke="#6637D9" stroke-width="2.7" stroke-linejoin="round" stroke-dasharray="8 7"/><text x="973" y="625" font-size="12" font-weight="700" fill="#6637D9">1</text><text x="960" y="653" font-size="12" font-weight="700" fill="#6637D9">N</text><rect x="889" y="589" width="78" height="26" rx="13" fill="#FFFFFF" stroke="#6637D9" stroke-width="1.3"/>
      <text x="928" y="606" text-anchor="middle" font-size="11.5" font-weight="700" fill="#6637D9">성향 반영</text><polyline points="950,760 1015,760 1015,955 1040,955" fill="none" stroke="#FFFFFF" stroke-opacity="0.92" stroke-width="5.4" stroke-linejoin="round"/>
    <polyline points="950,760 1015,760 1015,955 1040,955" fill="none" stroke="#607089" stroke-width="2.7" stroke-linejoin="round"/><text x="965" y="750" font-size="12" font-weight="700" fill="#607089">1</text><text x="1028" y="945" font-size="12" font-weight="700" fill="#607089">N</text><rect x="973" y="794" width="78" height="26" rx="13" fill="#FFFFFF" stroke="#607089" stroke-width="1.3"/>
      <text x="1012" y="811" text-anchor="middle" font-size="11.5" font-weight="700" fill="#607089">일정 항목</text><polyline points="1745,295 1570,295 1570,950 1470,950" fill="none" stroke="#FFFFFF" stroke-opacity="0.92" stroke-width="5.4" stroke-linejoin="round"/>
    <polyline points="1745,295 1570,295 1570,950 1470,950" fill="none" stroke="#087E62" stroke-width="2.7" stroke-linejoin="round" stroke-dasharray="8 7"/><text x="1728" y="285" font-size="12" font-weight="700" fill="#087E62">1</text><text x="1480" y="940" font-size="12" font-weight="700" fill="#087E62">N</text><rect x="1531" y="771" width="78" height="26" rx="13" fill="#FFFFFF" stroke="#087E62" stroke-width="1.3"/>
      <text x="1570" y="788" text-anchor="middle" font-size="11.5" font-weight="700" fill="#087E62">장소 참조</text><polyline points="265,746 265,960" fill="none" stroke="#FFFFFF" stroke-opacity="0.92" stroke-width="5.4" stroke-linejoin="round"/>
    <polyline points="265,746 265,960" fill="none" stroke="#607089" stroke-width="2.7" stroke-linejoin="round"/><text x="277" y="765" font-size="12" font-weight="700" fill="#607089">1</text><text x="277" y="948" font-size="12" font-weight="700" fill="#607089">N</text><rect x="291" y="836" width="78" height="26" rx="13" fill="#FFFFFF" stroke="#607089" stroke-width="1.3"/>
      <text x="330" y="853" text-anchor="middle" font-size="11.5" font-weight="700" fill="#607089">개인 경로</text><polyline points="545,760 510,760 510,1090" fill="none" stroke="#FFFFFF" stroke-opacity="0.92" stroke-width="5.4" stroke-linejoin="round"/>
    <polyline points="545,760 510,760 510,1090" fill="none" stroke="#607089" stroke-width="2.7" stroke-linejoin="round"/><text x="530" y="750" font-size="12" font-weight="700" fill="#607089">1</text><text x="520" y="1078" font-size="12" font-weight="700" fill="#607089">N</text><rect x="423" y="871" width="78" height="26" rx="13" fill="#FFFFFF" stroke="#607089" stroke-width="1.3"/>
      <text x="462" y="888" text-anchor="middle" font-size="11.5" font-weight="700" fill="#607089">여행 경로</text><polyline points="1960,426 1960,530" fill="none" stroke="#FFFFFF" stroke-opacity="0.92" stroke-width="5.4" stroke-linejoin="round"/>
    <polyline points="1960,426 1960,530" fill="none" stroke="#607089" stroke-width="2.7" stroke-linejoin="round"/><text x="1972" y="443" font-size="12" font-weight="700" fill="#607089">1</text><text x="1972" y="518" font-size="12" font-weight="700" fill="#607089">N</text><rect x="1986" y="464" width="78" height="26" rx="13" fill="#FFFFFF" stroke="#607089" stroke-width="1.3"/>
      <text x="2025" y="481" text-anchor="middle" font-size="11.5" font-weight="700" fill="#607089">상태 관측</text><polyline points="1975,806 1975,960" fill="none" stroke="#FFFFFF" stroke-opacity="0.92" stroke-width="5.4" stroke-linejoin="round"/>
    <polyline points="1975,806 1975,960" fill="none" stroke="#607089" stroke-width="2.7" stroke-linejoin="round"/><text x="1987" y="822" font-size="12" font-weight="700" fill="#607089">1</text><text x="1987" y="948" font-size="12" font-weight="700" fill="#607089">N</text><rect x="2003" y="866" width="78" height="26" rx="13" fill="#FFFFFF" stroke="#607089" stroke-width="1.3"/>
      <text x="2042" y="883" text-anchor="middle" font-size="11.5" font-weight="700" fill="#607089">변경 근거</text><polyline points="950,800 1530,800 1530,1110 1600,1110" fill="none" stroke="#FFFFFF" stroke-opacity="0.92" stroke-width="5.4" stroke-linejoin="round"/>
    <polyline points="950,800 1530,800 1530,1110 1600,1110" fill="none" stroke="#607089" stroke-width="2.7" stroke-linejoin="round"/><text x="965" y="790" font-size="12" font-weight="700" fill="#607089">1</text><text x="1585" y="1100" font-size="12" font-weight="700" fill="#607089">N</text><rect x="1221" y="768" width="78" height="26" rx="13" fill="#FFFFFF" stroke="#607089" stroke-width="1.3"/>
      <text x="1260" y="785" text-anchor="middle" font-size="11.5" font-weight="700" fill="#607089">일정 변경</text><polyline points="875,295 1505,295 1505,1035 1600,1035" fill="none" stroke="#FFFFFF" stroke-opacity="0.92" stroke-width="5.4" stroke-linejoin="round"/>
    <polyline points="875,295 1505,295 1505,1035 1600,1035" fill="none" stroke="#607089" stroke-width="2.7" stroke-linejoin="round"/><text x="890" y="285" font-size="12" font-weight="700" fill="#607089">1</text><text x="1585" y="1025" font-size="12" font-weight="700" fill="#607089">N</text><rect x="1411" y="316" width="78" height="26" rx="13" fill="#FFFFFF" stroke="#607089" stroke-width="1.3"/>
      <text x="1450" y="333" text-anchor="middle" font-size="11.5" font-weight="700" fill="#607089">여행 제안</text><g filter="url(#shadow)">
    <rect x="55" y="170" width="335" height="243" rx="14" fill="#FFFFFF" stroke="#123C69" stroke-width="2"/>
    <path d="M69,170 H376 Q390,170 390,184 V238 H55 V184 Q55,170 69,170 Z" fill="#123C69"/>
    <rect x="71" y="182" width="38" height="4" rx="2" fill="#FFFFFF" opacity="0.72"/>
    <text x="71" y="197" font-size="19" font-weight="700" fill="#FFFFFF">USERS · 사용자</text>
    <text x="71" y="220" font-size="12.5" fill="#FFFFFF" opacity="0.92">사용자 및 소셜 로그인 계정</text><text x="69" y="259" font-size="11.5" font-weight="700" fill="#B42318">PK</text>
      <text x="104" y="259" font-size="13" font-weight="500" fill="#0B1830">id</text>
      <text x="377" y="259" text-anchor="end" font-size="11.5" fill="#475569">UUID</text><rect x="57" y="271" width="331" height="33" fill="#EDF2F7"/><line x1="65" y1="271" x2="380" y2="271" stroke="#D6DEE8"/><text x="69" y="292" font-size="11.5" font-weight="700" fill="#475569"></text>
      <text x="104" y="292" font-size="13" font-weight="500" fill="#0B1830">nickname</text>
      <text x="377" y="292" text-anchor="end" font-size="11.5" fill="#475569">VARCHAR</text><line x1="65" y1="304" x2="380" y2="304" stroke="#D6DEE8"/><text x="69" y="325" font-size="11.5" font-weight="700" fill="#475569"></text>
      <text x="104" y="325" font-size="13" font-weight="500" fill="#0B1830">oauth_provider</text>
      <text x="377" y="325" text-anchor="end" font-size="11.5" fill="#475569">VARCHAR</text><rect x="57" y="337" width="331" height="33" fill="#EDF2F7"/><line x1="65" y1="337" x2="380" y2="337" stroke="#D6DEE8"/><text x="69" y="358" font-size="11.5" font-weight="700" fill="#475569"></text>
      <text x="104" y="358" font-size="13" font-weight="500" fill="#0B1830">oauth_subject</text>
      <text x="377" y="358" text-anchor="end" font-size="11.5" fill="#475569">VARCHAR</text><line x1="65" y1="370" x2="380" y2="370" stroke="#D6DEE8"/><text x="69" y="391" font-size="11.5" font-weight="700" fill="#475569"></text>
      <text x="104" y="391" font-size="13" font-weight="500" fill="#0B1830">status</text>
      <text x="377" y="391" text-anchor="end" font-size="11.5" fill="#475569">VARCHAR</text></g><g filter="url(#shadow)">
    <rect x="475" y="160" width="400" height="276" rx="14" fill="#FFFFFF" stroke="#123C69" stroke-width="2"/>
    <path d="M489,160 H861 Q875,160 875,174 V228 H475 V174 Q475,160 489,160 Z" fill="#123C69"/>
    <rect x="491" y="172" width="38" height="4" rx="2" fill="#FFFFFF" opacity="0.72"/>
    <text x="491" y="187" font-size="19" font-weight="700" fill="#FFFFFF">TRIPS · 여행</text>
    <text x="491" y="210" font-size="12.5" fill="#FFFFFF" opacity="0.92">여행과 출발 방식의 기준 정보</text><text x="489" y="249" font-size="11.5" font-weight="700" fill="#B42318">PK</text>
      <text x="524" y="249" font-size="13" font-weight="500" fill="#0B1830">id</text>
      <text x="862" y="249" text-anchor="end" font-size="11.5" fill="#475569">UUID</text><rect x="477" y="261" width="396" height="33" fill="#EDF2F7"/><line x1="485" y1="261" x2="865" y2="261" stroke="#D6DEE8"/><text x="489" y="282" font-size="11.5" font-weight="700" fill="#175CD3">FK</text>
      <text x="524" y="282" font-size="13" font-weight="500" fill="#0B1830">owner_id</text>
      <text x="862" y="282" text-anchor="end" font-size="11.5" fill="#475569">UUID</text><line x1="485" y1="294" x2="865" y2="294" stroke="#D6DEE8"/><text x="489" y="315" font-size="11.5" font-weight="700" fill="#475569"></text>
      <text x="524" y="315" font-size="13" font-weight="500" fill="#0B1830">departure_mode</text>
      <text x="862" y="315" text-anchor="end" font-size="11.5" fill="#475569">VARCHAR</text><rect x="477" y="327" width="396" height="33" fill="#EDF2F7"/><line x1="485" y1="327" x2="865" y2="327" stroke="#D6DEE8"/><text x="489" y="348" font-size="11.5" font-weight="700" fill="#475569"></text>
      <text x="524" y="348" font-size="13" font-weight="500" fill="#0B1830">departure_at / meeting_at</text>
      <text x="862" y="348" text-anchor="end" font-size="11.5" fill="#475569">TIMESTAMP</text><line x1="485" y1="360" x2="865" y2="360" stroke="#D6DEE8"/><text x="489" y="381" font-size="11.5" font-weight="700" fill="#475569"></text>
      <text x="524" y="381" font-size="13" font-weight="500" fill="#0B1830">meeting_location</text>
      <text x="862" y="381" text-anchor="end" font-size="11.5" fill="#475569">JSON</text><rect x="477" y="393" width="396" height="33" fill="#EDF2F7"/><line x1="485" y1="393" x2="865" y2="393" stroke="#D6DEE8"/><text x="489" y="414" font-size="11.5" font-weight="700" fill="#475569"></text>
      <text x="524" y="414" font-size="13" font-weight="500" fill="#0B1830">status</text>
      <text x="862" y="414" text-anchor="end" font-size="11.5" fill="#475569">VARCHAR</text></g><g filter="url(#shadow)">
    <rect x="55" y="505" width="415" height="309" rx="14" fill="#FFFFFF" stroke="#123C69" stroke-width="2"/>
    <path d="M69,505 H456 Q470,505 470,519 V573 H55 V519 Q55,505 69,505 Z" fill="#123C69"/>
    <rect x="71" y="517" width="38" height="4" rx="2" fill="#FFFFFF" opacity="0.72"/>
    <text x="71" y="532" font-size="19" font-weight="700" fill="#FFFFFF">TRIP_MEMBERS · 여행 멤버</text>
    <text x="71" y="555" font-size="12.5" fill="#FFFFFF" opacity="0.92">참가자별 출발지·귀가지를 관리</text><text x="69" y="594" font-size="11.5" font-weight="700" fill="#B42318">PK</text>
      <text x="104" y="594" font-size="13" font-weight="500" fill="#0B1830">id</text>
      <text x="457" y="594" text-anchor="end" font-size="11.5" fill="#475569">UUID</text><rect x="57" y="606" width="411" height="33" fill="#EDF2F7"/><line x1="65" y1="606" x2="460" y2="606" stroke="#D6DEE8"/><text x="69" y="627" font-size="11.5" font-weight="700" fill="#175CD3">FK</text>
      <text x="104" y="627" font-size="13" font-weight="500" fill="#0B1830">trip_id</text>
      <text x="457" y="627" text-anchor="end" font-size="11.5" fill="#475569">UUID</text><line x1="65" y1="639" x2="460" y2="639" stroke="#D6DEE8"/><text x="69" y="660" font-size="11.5" font-weight="700" fill="#175CD3">FK</text>
      <text x="104" y="660" font-size="13" font-weight="500" fill="#0B1830">user_id</text>
      <text x="457" y="660" text-anchor="end" font-size="11.5" fill="#475569">UUID</text><rect x="57" y="672" width="411" height="33" fill="#EDF2F7"/><line x1="65" y1="672" x2="460" y2="672" stroke="#D6DEE8"/><text x="69" y="693" font-size="11.5" font-weight="700" fill="#475569"></text>
      <text x="104" y="693" font-size="13" font-weight="500" fill="#0B1830">role / participation_status</text>
      <text x="457" y="693" text-anchor="end" font-size="11.5" fill="#475569">VARCHAR</text><line x1="65" y1="705" x2="460" y2="705" stroke="#D6DEE8"/><text x="69" y="726" font-size="11.5" font-weight="700" fill="#475569"></text>
      <text x="104" y="726" font-size="13" font-weight="500" fill="#0B1830">departure_location</text>
      <text x="457" y="726" text-anchor="end" font-size="11.5" fill="#475569">JSON</text><rect x="57" y="738" width="411" height="33" fill="#EDF2F7"/><line x1="65" y1="738" x2="460" y2="738" stroke="#D6DEE8"/><text x="69" y="759" font-size="11.5" font-weight="700" fill="#475569"></text>
      <text x="104" y="759" font-size="13" font-weight="500" fill="#0B1830">return_destination</text>
      <text x="457" y="759" text-anchor="end" font-size="11.5" fill="#475569">JSON</text><line x1="65" y1="771" x2="460" y2="771" stroke="#D6DEE8"/><text x="69" y="792" font-size="11.5" font-weight="700" fill="#475569"></text>
      <text x="104" y="792" font-size="13" font-weight="500" fill="#0B1830">route_preferences</text>
      <text x="457" y="792" text-anchor="end" font-size="11.5" fill="#475569">JSON</text></g><g filter="url(#shadow)">
    <rect x="985" y="160" width="355" height="243" rx="14" fill="#FFFFFF" stroke="#6637D9" stroke-width="2"/>
    <path d="M999,160 H1326 Q1340,160 1340,174 V228 H985 V174 Q985,160 999,160 Z" fill="#6637D9"/>
    <rect x="1001" y="172" width="38" height="4" rx="2" fill="#FFFFFF" opacity="0.72"/>
    <text x="1001" y="187" font-size="19" font-weight="700" fill="#FFFFFF">SURVEYS · 설문</text>
    <text x="1001" y="210" font-size="12.5" fill="#FFFFFF" opacity="0.92">성향·만족도 등 범용 설문 정의</text><text x="999" y="249" font-size="11.5" font-weight="700" fill="#B42318">PK</text>
      <text x="1034" y="249" font-size="13" font-weight="500" fill="#0B1830">id</text>
      <text x="1327" y="249" text-anchor="end" font-size="11.5" fill="#475569">UUID</text><rect x="987" y="261" width="351" height="33" fill="#EDF2F7"/><line x1="995" y1="261" x2="1330" y2="261" stroke="#D6DEE8"/><text x="999" y="282" font-size="11.5" font-weight="700" fill="#475569"></text>
      <text x="1034" y="282" font-size="13" font-weight="500" fill="#0B1830">survey_type</text>
      <text x="1327" y="282" text-anchor="end" font-size="11.5" fill="#475569">VARCHAR</text><line x1="995" y1="294" x2="1330" y2="294" stroke="#D6DEE8"/><text x="999" y="315" font-size="11.5" font-weight="700" fill="#475569"></text>
      <text x="1034" y="315" font-size="13" font-weight="500" fill="#0B1830">version</text>
      <text x="1327" y="315" text-anchor="end" font-size="11.5" fill="#475569">VARCHAR</text><rect x="987" y="327" width="351" height="33" fill="#EDF2F7"/><line x1="995" y1="327" x2="1330" y2="327" stroke="#D6DEE8"/><text x="999" y="348" font-size="11.5" font-weight="700" fill="#475569"></text>
      <text x="1034" y="348" font-size="13" font-weight="500" fill="#0B1830">questions</text>
      <text x="1327" y="348" text-anchor="end" font-size="11.5" fill="#475569">JSON</text><line x1="995" y1="360" x2="1330" y2="360" stroke="#D6DEE8"/><text x="999" y="381" font-size="11.5" font-weight="700" fill="#475569"></text>
      <text x="1034" y="381" font-size="13" font-weight="500" fill="#0B1830">status</text>
      <text x="1327" y="381" text-anchor="end" font-size="11.5" fill="#475569">VARCHAR</text></g><g filter="url(#shadow)">
    <rect x="985" y="455" width="390" height="276" rx="14" fill="#FFFFFF" stroke="#6637D9" stroke-width="2"/>
    <path d="M999,455 H1361 Q1375,455 1375,469 V523 H985 V469 Q985,455 999,455 Z" fill="#6637D9"/>
    <rect x="1001" y="467" width="38" height="4" rx="2" fill="#FFFFFF" opacity="0.72"/>
    <text x="1001" y="482" font-size="19" font-weight="700" fill="#FFFFFF">SURVEY_RESPONSES · 설문 응답</text>
    <text x="1001" y="505" font-size="12.5" fill="#FFFFFF" opacity="0.92">응답 원본과 계산 결과</text><text x="999" y="544" font-size="11.5" font-weight="700" fill="#B42318">PK</text>
      <text x="1034" y="544" font-size="13" font-weight="500" fill="#0B1830">id</text>
      <text x="1362" y="544" text-anchor="end" font-size="11.5" fill="#475569">UUID</text><rect x="987" y="556" width="386" height="33" fill="#EDF2F7"/><line x1="995" y1="556" x2="1365" y2="556" stroke="#D6DEE8"/><text x="999" y="577" font-size="11.5" font-weight="700" fill="#175CD3">FK</text>
      <text x="1034" y="577" font-size="13" font-weight="500" fill="#0B1830">survey_id</text>
      <text x="1362" y="577" text-anchor="end" font-size="11.5" fill="#475569">UUID</text><line x1="995" y1="589" x2="1365" y2="589" stroke="#D6DEE8"/><text x="999" y="610" font-size="11.5" font-weight="700" fill="#175CD3">FK</text>
      <text x="1034" y="610" font-size="13" font-weight="500" fill="#0B1830">user_id / trip_id</text>
      <text x="1362" y="610" text-anchor="end" font-size="11.5" fill="#475569">UUID</text><rect x="987" y="622" width="386" height="33" fill="#EDF2F7"/><line x1="995" y1="622" x2="1365" y2="622" stroke="#D6DEE8"/><text x="999" y="643" font-size="11.5" font-weight="700" fill="#475569"></text>
      <text x="1034" y="643" font-size="13" font-weight="500" fill="#0B1830">answers</text>
      <text x="1362" y="643" text-anchor="end" font-size="11.5" fill="#475569">JSON</text><line x1="995" y1="655" x2="1365" y2="655" stroke="#D6DEE8"/><text x="999" y="676" font-size="11.5" font-weight="700" fill="#475569"></text>
      <text x="1034" y="676" font-size="13" font-weight="500" fill="#0B1830">result_code</text>
      <text x="1362" y="676" text-anchor="end" font-size="11.5" fill="#475569">VARCHAR</text><rect x="987" y="688" width="386" height="33" fill="#EDF2F7"/><line x1="995" y1="688" x2="1365" y2="688" stroke="#D6DEE8"/><text x="999" y="709" font-size="11.5" font-weight="700" fill="#475569"></text>
      <text x="1034" y="709" font-size="13" font-weight="500" fill="#0B1830">result_data</text>
      <text x="1362" y="709" text-anchor="end" font-size="11.5" fill="#475569">JSON</text></g><g filter="url(#shadow)">
    <rect x="545" y="620" width="405" height="276" rx="14" fill="#FFFFFF" stroke="#123C69" stroke-width="2"/>
    <path d="M559,620 H936 Q950,620 950,634 V688 H545 V634 Q545,620 559,620 Z" fill="#123C69"/>
    <rect x="561" y="632" width="38" height="4" rx="2" fill="#FFFFFF" opacity="0.72"/>
    <text x="561" y="647" font-size="19" font-weight="700" fill="#FFFFFF">TRIP_PLANS · 현재 일정</text>
    <text x="561" y="670" font-size="12.5" fill="#FFFFFF" opacity="0.92">여행당 하나의 현재 일정</text><text x="559" y="709" font-size="11.5" font-weight="700" fill="#B42318">PK</text>
      <text x="594" y="709" font-size="13" font-weight="500" fill="#0B1830">id</text>
      <text x="937" y="709" text-anchor="end" font-size="11.5" fill="#475569">UUID</text><rect x="547" y="721" width="401" height="33" fill="#EDF2F7"/><line x1="555" y1="721" x2="940" y2="721" stroke="#D6DEE8"/><text x="559" y="742" font-size="11.5" font-weight="700" fill="#175CD3">FK</text>
      <text x="594" y="742" font-size="13" font-weight="500" fill="#0B1830">trip_id</text>
      <text x="937" y="742" text-anchor="end" font-size="11.5" fill="#475569">UUID</text><line x1="555" y1="754" x2="940" y2="754" stroke="#D6DEE8"/><text x="559" y="775" font-size="11.5" font-weight="700" fill="#175CD3">FK</text>
      <text x="594" y="775" font-size="13" font-weight="500" fill="#0B1830">survey_response_id</text>
      <text x="937" y="775" text-anchor="end" font-size="11.5" fill="#475569">UUID</text><rect x="547" y="787" width="401" height="33" fill="#EDF2F7"/><line x1="555" y1="787" x2="940" y2="787" stroke="#D6DEE8"/><text x="559" y="808" font-size="11.5" font-weight="700" fill="#475569"></text>
      <text x="594" y="808" font-size="13" font-weight="500" fill="#0B1830">revision_no</text>
      <text x="937" y="808" text-anchor="end" font-size="11.5" fill="#475569">INT</text><line x1="555" y1="820" x2="940" y2="820" stroke="#D6DEE8"/><text x="559" y="841" font-size="11.5" font-weight="700" fill="#475569"></text>
      <text x="594" y="841" font-size="13" font-weight="500" fill="#0B1830">preference_snapshot</text>
      <text x="937" y="841" text-anchor="end" font-size="11.5" fill="#475569">JSON</text><rect x="547" y="853" width="401" height="33" fill="#EDF2F7"/><line x1="555" y1="853" x2="940" y2="853" stroke="#D6DEE8"/><text x="559" y="874" font-size="11.5" font-weight="700" fill="#475569"></text>
      <text x="594" y="874" font-size="13" font-weight="500" fill="#0B1830">status</text>
      <text x="937" y="874" text-anchor="end" font-size="11.5" fill="#475569">VARCHAR</text></g><g filter="url(#shadow)">
    <rect x="1040" y="850" width="430" height="276" rx="14" fill="#FFFFFF" stroke="#123C69" stroke-width="2"/>
    <path d="M1054,850 H1456 Q1470,850 1470,864 V918 H1040 V864 Q1040,850 1054,850 Z" fill="#123C69"/>
    <rect x="1056" y="862" width="38" height="4" rx="2" fill="#FFFFFF" opacity="0.72"/>
    <text x="1056" y="877" font-size="19" font-weight="700" fill="#FFFFFF">TRIP_PLAN_ITEMS · 일정 항목</text>
    <text x="1056" y="900" font-size="12.5" fill="#FFFFFF" opacity="0.92">장소별 방문 순서와 예정 시간</text><text x="1054" y="939" font-size="11.5" font-weight="700" fill="#B42318">PK</text>
      <text x="1089" y="939" font-size="13" font-weight="500" fill="#0B1830">id</text>
      <text x="1457" y="939" text-anchor="end" font-size="11.5" fill="#475569">UUID</text><rect x="1042" y="951" width="426" height="33" fill="#EDF2F7"/><line x1="1050" y1="951" x2="1460" y2="951" stroke="#D6DEE8"/><text x="1054" y="972" font-size="11.5" font-weight="700" fill="#175CD3">FK</text>
      <text x="1089" y="972" font-size="13" font-weight="500" fill="#0B1830">plan_id</text>
      <text x="1457" y="972" text-anchor="end" font-size="11.5" fill="#475569">UUID</text><line x1="1050" y1="984" x2="1460" y2="984" stroke="#D6DEE8"/><text x="1054" y="1005" font-size="11.5" font-weight="700" fill="#175CD3">FK</text>
      <text x="1089" y="1005" font-size="13" font-weight="500" fill="#0B1830">place_id</text>
      <text x="1457" y="1005" text-anchor="end" font-size="11.5" fill="#475569">UUID</text><rect x="1042" y="1017" width="426" height="33" fill="#EDF2F7"/><line x1="1050" y1="1017" x2="1460" y2="1017" stroke="#D6DEE8"/><text x="1054" y="1038" font-size="11.5" font-weight="700" fill="#475569"></text>
      <text x="1089" y="1038" font-size="13" font-weight="500" fill="#0B1830">sequence_no</text>
      <text x="1457" y="1038" text-anchor="end" font-size="11.5" fill="#475569">INT</text><line x1="1050" y1="1050" x2="1460" y2="1050" stroke="#D6DEE8"/><text x="1054" y="1071" font-size="11.5" font-weight="700" fill="#475569"></text>
      <text x="1089" y="1071" font-size="13" font-weight="500" fill="#0B1830">planned_start / end</text>
      <text x="1457" y="1071" text-anchor="end" font-size="11.5" fill="#475569">TIMESTAMP</text><rect x="1042" y="1083" width="426" height="33" fill="#EDF2F7"/><line x1="1050" y1="1083" x2="1460" y2="1083" stroke="#D6DEE8"/><text x="1054" y="1104" font-size="11.5" font-weight="700" fill="#475569"></text>
      <text x="1089" y="1104" font-size="13" font-weight="500" fill="#0B1830">status</text>
      <text x="1457" y="1104" text-anchor="end" font-size="11.5" fill="#475569">VARCHAR</text></g><g filter="url(#shadow)">
    <rect x="55" y="960" width="455" height="309" rx="14" fill="#FFFFFF" stroke="#0568C2" stroke-width="2"/>
    <path d="M69,960 H496 Q510,960 510,974 V1028 H55 V974 Q55,960 69,960 Z" fill="#0568C2"/>
    <rect x="71" y="972" width="38" height="4" rx="2" fill="#FFFFFF" opacity="0.72"/>
    <text x="71" y="987" font-size="19" font-weight="700" fill="#FFFFFF">TRIP_ROUTES · 선택 경로</text>
    <text x="71" y="1010" font-size="12.5" fill="#FFFFFF" opacity="0.92">선택된 출발·이동·귀가 경로</text><text x="69" y="1049" font-size="11.5" font-weight="700" fill="#B42318">PK</text>
      <text x="104" y="1049" font-size="13" font-weight="500" fill="#0B1830">id</text>
      <text x="497" y="1049" text-anchor="end" font-size="11.5" fill="#475569">UUID</text><rect x="57" y="1061" width="451" height="33" fill="#EDF2F7"/><line x1="65" y1="1061" x2="500" y2="1061" stroke="#D6DEE8"/><text x="69" y="1082" font-size="11.5" font-weight="700" fill="#175CD3">FK</text>
      <text x="104" y="1082" font-size="13" font-weight="500" fill="#0B1830">trip_id / member_id</text>
      <text x="497" y="1082" text-anchor="end" font-size="11.5" fill="#475569">UUID</text><line x1="65" y1="1094" x2="500" y2="1094" stroke="#D6DEE8"/><text x="69" y="1115" font-size="11.5" font-weight="700" fill="#475569"></text>
      <text x="104" y="1115" font-size="13" font-weight="500" fill="#0B1830">scope / phase</text>
      <text x="497" y="1115" text-anchor="end" font-size="11.5" fill="#475569">VARCHAR</text><rect x="57" y="1127" width="451" height="33" fill="#EDF2F7"/><line x1="65" y1="1127" x2="500" y2="1127" stroke="#D6DEE8"/><text x="69" y="1148" font-size="11.5" font-weight="700" fill="#475569"></text>
      <text x="104" y="1148" font-size="13" font-weight="500" fill="#0B1830">origin / destination</text>
      <text x="497" y="1148" text-anchor="end" font-size="11.5" fill="#475569">JSON</text><line x1="65" y1="1160" x2="500" y2="1160" stroke="#D6DEE8"/><text x="69" y="1181" font-size="11.5" font-weight="700" fill="#475569"></text>
      <text x="104" y="1181" font-size="13" font-weight="500" fill="#0B1830">duration / transfer / fare</text>
      <text x="497" y="1181" text-anchor="end" font-size="11.5" fill="#475569">INT</text><rect x="57" y="1193" width="451" height="33" fill="#EDF2F7"/><line x1="65" y1="1193" x2="500" y2="1193" stroke="#D6DEE8"/><text x="69" y="1214" font-size="11.5" font-weight="700" fill="#475569"></text>
      <text x="104" y="1214" font-size="13" font-weight="500" fill="#0B1830">route_data</text>
      <text x="497" y="1214" text-anchor="end" font-size="11.5" fill="#475569">JSON</text><line x1="65" y1="1226" x2="500" y2="1226" stroke="#D6DEE8"/><text x="69" y="1247" font-size="11.5" font-weight="700" fill="#475569"></text>
      <text x="104" y="1247" font-size="13" font-weight="500" fill="#0B1830">status / valid_until</text>
      <text x="497" y="1247" text-anchor="end" font-size="11.5" fill="#475569">VARCHAR</text></g><g filter="url(#shadow)">
    <rect x="1745" y="160" width="430" height="276" rx="14" fill="#FFFFFF" stroke="#087E62" stroke-width="2"/>
    <path d="M1759,160 H2161 Q2175,160 2175,174 V228 H1745 V174 Q1745,160 1759,160 Z" fill="#087E62"/>
    <rect x="1761" y="172" width="38" height="4" rx="2" fill="#FFFFFF" opacity="0.72"/>
    <text x="1761" y="187" font-size="19" font-weight="700" fill="#FFFFFF">PLACES · 장소</text>
    <text x="1761" y="210" font-size="12.5" fill="#FFFFFF" opacity="0.92">외부 장소 API를 보완하는 장소 원장</text><text x="1759" y="249" font-size="11.5" font-weight="700" fill="#B42318">PK</text>
      <text x="1794" y="249" font-size="13" font-weight="500" fill="#0B1830">id</text>
      <text x="2162" y="249" text-anchor="end" font-size="11.5" fill="#475569">UUID</text><rect x="1747" y="261" width="426" height="33" fill="#EDF2F7"/><line x1="1755" y1="261" x2="2165" y2="261" stroke="#D6DEE8"/><text x="1759" y="282" font-size="11.5" font-weight="700" fill="#475569"></text>
      <text x="1794" y="282" font-size="13" font-weight="500" fill="#0B1830">name / category</text>
      <text x="2162" y="282" text-anchor="end" font-size="11.5" fill="#475569">VARCHAR</text><line x1="1755" y1="294" x2="2165" y2="294" stroke="#D6DEE8"/><text x="1759" y="315" font-size="11.5" font-weight="700" fill="#475569"></text>
      <text x="1794" y="315" font-size="13" font-weight="500" fill="#0B1830">address</text>
      <text x="2162" y="315" text-anchor="end" font-size="11.5" fill="#475569">VARCHAR</text><rect x="1747" y="327" width="426" height="33" fill="#EDF2F7"/><line x1="1755" y1="327" x2="2165" y2="327" stroke="#D6DEE8"/><text x="1759" y="348" font-size="11.5" font-weight="700" fill="#475569"></text>
      <text x="1794" y="348" font-size="13" font-weight="500" fill="#0B1830">latitude / longitude</text>
      <text x="2162" y="348" text-anchor="end" font-size="11.5" fill="#475569">DECIMAL</text><line x1="1755" y1="360" x2="2165" y2="360" stroke="#D6DEE8"/><text x="1759" y="381" font-size="11.5" font-weight="700" fill="#475569"></text>
      <text x="1794" y="381" font-size="13" font-weight="500" fill="#0B1830">source / source_place_id</text>
      <text x="2162" y="381" text-anchor="end" font-size="11.5" fill="#475569">VARCHAR</text><rect x="1747" y="393" width="426" height="33" fill="#EDF2F7"/><line x1="1755" y1="393" x2="2165" y2="393" stroke="#D6DEE8"/><text x="1759" y="414" font-size="11.5" font-weight="700" fill="#475569"></text>
      <text x="1794" y="414" font-size="13" font-weight="500" fill="#0B1830">basic_info</text>
      <text x="2162" y="414" text-anchor="end" font-size="11.5" fill="#475569">JSON</text></g><g filter="url(#shadow)">
    <rect x="1745" y="530" width="455" height="276" rx="14" fill="#FFFFFF" stroke="#D85C22" stroke-width="2"/>
    <path d="M1759,530 H2186 Q2200,530 2200,544 V598 H1745 V544 Q1745,530 1759,530 Z" fill="#D85C22"/>
    <rect x="1761" y="542" width="38" height="4" rx="2" fill="#FFFFFF" opacity="0.72"/>
    <text x="1761" y="557" font-size="19" font-weight="700" fill="#FFFFFF">EVENT_OBSERVATIONS · 이벤트 관측</text>
    <text x="1761" y="580" font-size="12.5" fill="#FFFFFF" opacity="0.92">정규화한 날씨·혼잡·교통 관측값</text><text x="1759" y="619" font-size="11.5" font-weight="700" fill="#B42318">PK</text>
      <text x="1794" y="619" font-size="13" font-weight="500" fill="#0B1830">id</text>
      <text x="2187" y="619" text-anchor="end" font-size="11.5" fill="#475569">UUID</text><rect x="1747" y="631" width="451" height="33" fill="#EDF2F7"/><line x1="1755" y1="631" x2="2190" y2="631" stroke="#D6DEE8"/><text x="1759" y="652" font-size="11.5" font-weight="700" fill="#175CD3">FK</text>
      <text x="1794" y="652" font-size="13" font-weight="500" fill="#0B1830">place_id</text>
      <text x="2187" y="652" text-anchor="end" font-size="11.5" fill="#475569">UUID</text><line x1="1755" y1="664" x2="2190" y2="664" stroke="#D6DEE8"/><text x="1759" y="685" font-size="11.5" font-weight="700" fill="#475569"></text>
      <text x="1794" y="685" font-size="13" font-weight="500" fill="#0B1830">event_type / source</text>
      <text x="2187" y="685" text-anchor="end" font-size="11.5" fill="#475569">VARCHAR</text><rect x="1747" y="697" width="451" height="33" fill="#EDF2F7"/><line x1="1755" y1="697" x2="2190" y2="697" stroke="#D6DEE8"/><text x="1759" y="718" font-size="11.5" font-weight="700" fill="#475569"></text>
      <text x="1794" y="718" font-size="13" font-weight="500" fill="#0B1830">observed_at / valid_to</text>
      <text x="2187" y="718" text-anchor="end" font-size="11.5" fill="#475569">TIMESTAMP</text><line x1="1755" y1="730" x2="2190" y2="730" stroke="#D6DEE8"/><text x="1759" y="751" font-size="11.5" font-weight="700" fill="#475569"></text>
      <text x="1794" y="751" font-size="13" font-weight="500" fill="#0B1830">severity</text>
      <text x="2187" y="751" text-anchor="end" font-size="11.5" fill="#475569">VARCHAR</text><rect x="1747" y="763" width="451" height="33" fill="#EDF2F7"/><line x1="1755" y1="763" x2="2190" y2="763" stroke="#D6DEE8"/><text x="1759" y="784" font-size="11.5" font-weight="700" fill="#475569"></text>
      <text x="1794" y="784" font-size="13" font-weight="500" fill="#0B1830">normalized_value</text>
      <text x="2187" y="784" text-anchor="end" font-size="11.5" fill="#475569">JSON</text></g><g filter="url(#shadow)">
    <rect x="1600" y="960" width="610" height="309" rx="14" fill="#FFFFFF" stroke="#C52B5A" stroke-width="2"/>
    <path d="M1614,960 H2196 Q2210,960 2210,974 V1028 H1600 V974 Q1600,960 1614,960 Z" fill="#C52B5A"/>
    <rect x="1616" y="972" width="38" height="4" rx="2" fill="#FFFFFF" opacity="0.72"/>
    <text x="1616" y="987" font-size="19" font-weight="700" fill="#FFFFFF">CHANGE_PROPOSALS · 변경 제안</text>
    <text x="1616" y="1010" font-size="12.5" fill="#FFFFFF" opacity="0.92">일정 변경 제안·승인·감사 기록</text><text x="1614" y="1049" font-size="11.5" font-weight="700" fill="#B42318">PK</text>
      <text x="1649" y="1049" font-size="13" font-weight="500" fill="#0B1830">id</text>
      <text x="2197" y="1049" text-anchor="end" font-size="11.5" fill="#475569">UUID</text><rect x="1602" y="1061" width="606" height="33" fill="#EDF2F7"/><line x1="1610" y1="1061" x2="2200" y2="1061" stroke="#D6DEE8"/><text x="1614" y="1082" font-size="11.5" font-weight="700" fill="#175CD3">FK</text>
      <text x="1649" y="1082" font-size="13" font-weight="500" fill="#0B1830">trip_id / plan_id / event_id</text>
      <text x="2197" y="1082" text-anchor="end" font-size="11.5" fill="#475569">UUID</text><line x1="1610" y1="1094" x2="2200" y2="1094" stroke="#D6DEE8"/><text x="1614" y="1115" font-size="11.5" font-weight="700" fill="#475569"></text>
      <text x="1649" y="1115" font-size="13" font-weight="500" fill="#0B1830">base_revision_no</text>
      <text x="2197" y="1115" text-anchor="end" font-size="11.5" fill="#475569">INT</text><rect x="1602" y="1127" width="606" height="33" fill="#EDF2F7"/><line x1="1610" y1="1127" x2="2200" y2="1127" stroke="#D6DEE8"/><text x="1614" y="1148" font-size="11.5" font-weight="700" fill="#475569"></text>
      <text x="1649" y="1148" font-size="13" font-weight="500" fill="#0B1830">status / reason</text>
      <text x="2197" y="1148" text-anchor="end" font-size="11.5" fill="#475569">VARCHAR</text><line x1="1610" y1="1160" x2="2200" y2="1160" stroke="#D6DEE8"/><text x="1614" y="1181" font-size="11.5" font-weight="700" fill="#475569"></text>
      <text x="1649" y="1181" font-size="13" font-weight="500" fill="#0B1830">options / selected_option</text>
      <text x="2197" y="1181" text-anchor="end" font-size="11.5" fill="#475569">JSON</text><rect x="1602" y="1193" width="606" height="33" fill="#EDF2F7"/><line x1="1610" y1="1193" x2="2200" y2="1193" stroke="#D6DEE8"/><text x="1614" y="1214" font-size="11.5" font-weight="700" fill="#475569"></text>
      <text x="1649" y="1214" font-size="13" font-weight="500" fill="#0B1830">before / after_snapshot</text>
      <text x="2197" y="1214" text-anchor="end" font-size="11.5" fill="#475569">JSON</text><line x1="1610" y1="1226" x2="2200" y2="1226" stroke="#D6DEE8"/><text x="1614" y="1247" font-size="11.5" font-weight="700" fill="#475569"></text>
      <text x="1649" y="1247" font-size="13" font-weight="500" fill="#0B1830">decided_by / decided_at</text>
      <text x="2197" y="1247" text-anchor="end" font-size="11.5" fill="#475569">UUID / TIME</text></g></g></g>
</svg>